Coordinates
version=1
nRows=13
nColumns=36
inDegrees=yes

Units are S.I. units (second, meters, Newtons, ...)
If the header above contains a line with 'inDegrees', this indicates whether rotational values are in degrees (yes) or radians (no).

endheader
time	pelvis_tilt	pelvis_list	pelvis_rotation	pelvis_tx	pelvis_ty	pelvis_tz	hip_flexion_r	hip_adduction_r	hip_rotation_r	knee_angle_r	knee_angle_r_beta	ankle_angle_r	subtalar_angle_r	mtp_angle_r	hip_flexion_l	hip_adduction_l	hip_rotation_l	knee_angle_l	knee_angle_l_beta	ankle_angle_l	subtalar_angle_l	mtp_angle_l	lumbar_extension	lumbar_bending	lumbar_rotation	arm_flex_r	arm_add_r	arm_rot_r	elbow_flex_r	pro_sup_r	arm_flex_l	arm_add_l	arm_rot_l	elbow_flex_l	pro_sup_l
      2.76666670	    -13.95619152	      0.28607583	      1.37925151	      0.81696064	      0.73466576	     -0.07947010	     66.59723981	     -7.11397278	      2.09948412	     71.69764988	      1.25136006	     24.05618626	     -9.80273965	     -7.49999987	     66.43467600	     -6.69531526	      0.92578428	     72.34787830	      1.26270868	     17.61471951	    -18.05280578	     -7.49999987	    -21.53768401	      6.07722011	     -3.29161955	    -10.68796867	    -18.09903918	    -23.34507756	      4.50025403	     69.04384925	     -9.61852861	     -8.48205696	    -41.24731461	     26.18789475	     94.33160964
      2.78333330	    -12.09388757	      0.53794647	      2.01734969	      0.80656638	      0.72337947	     -0.07590462	     68.60114520	     -7.18381339	      3.53141780	     78.76091155	      1.37463723	     26.48404555	    -10.59548317	     -7.49999987	     68.27789876	     -6.04749021	      1.30354885	     79.09041590	      1.38038816	     21.83755344	    -17.81272433	     -7.49999987	    -32.25006800	      4.50955932	     -0.76917850	      2.75417398	    -15.14943887	    -19.52228030	      8.72577502	     68.00231749	      4.01666171	    -10.05301704	    -29.22998850	     20.44421791	     94.18283701
      2.80000000	    -12.00353473	      1.18291584	      1.93176252	      0.82907415	      0.69804378	     -0.08643783	     71.57862680	     -7.44008755	      5.10448871	     84.52556638	      1.47524944	     28.31591138	    -11.03469867	     -7.49999987	     70.39830996	     -5.44852471	      1.19235316	     84.46831388	      1.47425019	     25.52083371	    -17.94668141	     -7.49999987	    -39.59257569	      2.72319582	      0.43931985	     14.61471659	    -14.83583331	    -18.17025614	     15.35640690	     67.67280947	     12.01834985	     -9.12783101	    -27.74152762	     22.65186798	     93.16883341
      2.81666670	    -14.17766123	      1.44391934	      2.10990660	      0.83635013	      0.68999422	     -0.08793806	     75.31376079	     -8.23694220	      5.82644451	     88.26783436	      1.54056433	     30.04097919	    -10.74898176	     -7.49999987	     73.66771418	     -4.71463293	      1.19303383	     88.02473169	      1.53632139	     28.92430024	    -17.10386361	     -7.49999987	    -43.98257053	      2.56109465	      0.71425954	     26.74539735	    -17.07891298	     -7.69472057	     23.80619356	     56.51301605	     23.18827193	    -10.20025771	    -18.25188246	     26.67898600	     82.45537053
      2.83333330	    -18.42749233	      1.46731921	      2.26311059	      0.85015313	      0.67263763	     -0.08673807	     80.52173600	     -9.05573982	      5.89244888	     90.98631812	      1.58801083	     31.53657843	    -10.45206242	     -7.49999987	     78.46133234	     -4.35036167	      1.18778256	     90.64437265	      1.58204275	     31.62824263	    -16.48941255	     -7.49999987	    -43.85502786	      2.80797907	      0.96729806	     39.32518801	    -17.30442356	     -6.34358399	     30.45947221	     57.58131319	     34.65247999	    -11.18063950	    -15.99703122	     32.37558421	     83.58564769
      2.85000000	    -22.96709347	      1.24630291	      2.23888198	      0.86584360	      0.66595508	     -0.08231919	     85.04424956	     -9.67018171	      5.32256289	     92.33344125	      1.61152256	     32.92368218	    -10.20935345	     -7.49999987	     82.68002336	     -4.49250173	      1.25619864	     91.88412094	      1.60368044	     33.80346911	    -15.80263917	     -7.49999987	    -42.61800348	      2.56502052	      0.83860486	     50.26536878	    -15.94443614	     -4.15963444	     36.13608821	     68.43275149	     45.55048435	    -13.83561260	    -12.31473837	     36.73499875	     94.68735666
      2.86666670	    -26.92617972	      0.65694851	      1.77307684	      0.87119882	      0.65819359	     -0.06261762	     88.20689625	     -9.32054426	      3.87460479	     92.52229021	      1.61481860	     34.47076672	    -10.12924033	     -7.49999987	     85.99426405	     -5.80776530	      1.60049892	     92.09957646	      1.60744085	     35.59502630	    -14.86570571	     -7.49999987	    -41.81490459	      1.97336707	      1.43156984	     58.29050752	    -14.18216624	     -1.15303809	     48.35852127	     71.25658242	     56.72262079	    -16.84673442	     -7.21767141	     44.20376866	     93.79834604
      2.88333330	    -32.01737832	      0.55785332	      1.96283059	      0.81071452	      0.62860761	     -0.08041865	     94.89096326	    -10.02144341	      2.93941087	     93.13037486	      1.62543167	     34.48621772	     -9.82916280	     -7.49999987	     92.69177597	     -6.47544023	      0.86298484	     92.87126740	      1.62090940	     35.32324874	    -14.94221849	     -7.49999987	    -37.55515734	      2.21640410	      1.50080111	     69.96414681	    -12.96440593	      2.41360390	     56.98150277	     74.73891435	     73.04157894	    -17.30030493	      6.38154545	     45.57521042	     95.51139560
      2.90000000	    -35.94179983	      0.64358135	      2.16735515	      0.79890924	      0.62023807	     -0.07508036	    100.95713432	    -10.80480074	      2.07409247	     93.94275146	      1.63961032	     34.16343026	     -9.17709614	     -7.49999987	     98.55498922	     -7.01725960	     -0.01636191	     93.50931936	      1.63204550	     33.93360687	    -15.97207643	     -7.49999987	    -35.24014028	      1.64617089	      0.87778986	     82.28428275	     -8.31122123	      6.09726166	     61.31630502	     87.46928368	     88.81864881	    -19.08517303	     25.07146115	     45.47918500	     88.22826069
      2.91666670	    -38.90239349	      0.66378251	      2.07093959	      0.80529047	      0.61265245	     -0.09910617	    105.80014144	    -12.01316747	      1.06060666	     94.54151247	      1.65006067	     33.52170724	     -8.45144906	     -7.49999987	    103.00474214	     -7.13782861	     -0.53500932	     94.00616478	      1.64071709	     31.67468594	    -17.57670340	     -7.49999987	    -33.98624682	      2.46010815	     -0.06892028	     94.83049906	     -3.69985548	     13.14380342	     63.03459267	     92.03221570	    100.37850644	    -19.45080366	     37.58011361	     51.00046001	     88.57899937
      2.93333330	    -40.64092217	      0.75619738	      1.80168776	      0.83779467	      0.61751708	     -0.09507621	    108.02353669	    -13.00126552	      0.20782158	     94.75947191	      1.65386478	     33.37134522	     -7.53426580	     -7.49999987	    105.04912397	     -7.07680646	     -0.68235000	     94.30677510	      1.64596373	     30.10592654	    -19.01473346	     -7.49999987	    -33.55399424	      2.92998371	      1.15792191	    102.56476203	      0.07830350	     18.54298831	     68.07345375	     93.05080254	    106.03164540	    -17.21091434	     38.51210593	     56.54237523	     88.47119965
      2.95000000	    -42.10346038	      0.74492468	      1.91395860	      0.81454653	      0.61220869	     -0.10105072	    109.85268443	    -14.04320042	     -0.22486810	     94.78746232	      1.65435331	     32.74484472	     -7.00421773	     -7.49999987	    106.63887667	     -6.67661689	     -0.84548468	     94.29284260	      1.64572056	     28.82993192	    -19.91312264	     -7.49999987	    -33.94261330	      3.68014916	      3.06967774	    113.54202813	      2.48140862	     24.10070231	     66.70059728	     94.86114059	    113.54125958	    -14.39296401	     40.10551026	     62.76012507	     88.27295194
      2.96666670	    -42.47190625	      0.90254577	      2.21282731	      0.80027404	      0.60989807	     -0.10175885	    110.68077028	    -14.94535401	     -0.33972487	     94.75300100	      1.65375184	     32.02696533	     -6.67231085	     -7.49999987	    107.24194925	     -6.11308990	     -1.16767816	     94.21281199	      1.64432377	     27.50908080	    -21.08625074	     -7.49999987	    -33.20608908	      3.87364103	      4.74545253	    119.15108497	      4.28313116	     25.02901016	     67.04820565	     95.43466408	    118.47568845	     -9.22043628	     39.39280196	     66.01312375	     88.08027492
